<svg width="64" height="64" viewBox="0 0 24 24" fill="none" xmlns="http://www.w3.org/2000/svg">
  <rect width="24" height="24" rx="6" fill="#0097EB"></rect>
  <path d="M10 14H8V10H10V14ZM13 14H11V7H13V14ZM16 14H14V12H16V14ZM17.7071 17.2929L15.314 14.8998C16.0444 13.9593 16.5 12.7795 16.5 11.5C16.5 8.46243 14.0376 6 11 6C7.96243 6 5.5 8.46243 5.5 11.5C5.5 14.5376 7.96243 17 11 17C12.2795 17 13.4593 16.5444 14.3998 15.814L16.7929 18.2071C17.1834 18.5976 17.8166 18.5976 18.2071 18.2071C18.5976 17.8166 18.5976 17.1834 18.2071 16.7929L17.7071 17.2929ZM11 15C8.79086 15 7 13.2091 7 11C7 8.79086 8.79086 7 11 7C13.2091 7 15 8.79086 15 11C15 13.2091 13.2091 15 11 15Z" fill="white"></path>
</svg>
